<?xml version="1.0" encoding="UTF-8"?>
<svg id="Layer_4" data-name="Layer 4" xmlns="http://www.w3.org/2000/svg" viewBox="0 0 300 300">
  <defs>
    <style>
      .cls-1 {
        fill: #fff;
        stroke-width: 0px;
      }
    </style>
  </defs>
  <path class="cls-1" d="m136.08,161.32c-8.43-3.11-17.62-2.84-26.44-2.18s-18.41,2-27.45,3.96c-5.15,1.11-10.26,2.44-15.31,3.97-3.07.93-1.76,5.75,1.33,4.82,8.57-2.58,17.3-4.59,26.14-5.99,8.62-1.36,17.48-2.32,26.22-2.16,4.84.09,9.61.73,14.17,2.41,1.27.47,2.74-.52,3.08-1.75.38-1.4-.47-2.61-1.75-3.08h0Z"/>
  <path class="cls-1" d="m133.25,144.56c-16.51-14.18-38.8-17.45-59.86-17.15-6.65.09-13.3.49-19.94.89-3.2.19-3.22,5.19,0,5,20.93-1.26,43.22-2.67,62.8,6.31,4.84,2.22,9.42,5.01,13.47,8.48,1.02.88,2.53,1.01,3.54,0,.9-.9,1.03-2.65,0-3.54h0Z"/>
  <path class="cls-1" d="m142.62,125.85c-5.46-17.37-19.46-30.06-34.72-39.07-4.6-2.72-9.36-5.16-14.17-7.49-1.21-.59-2.7-.33-3.42.9-.64,1.1-.32,2.83.9,3.42,15.42,7.47,31.06,16.53,40.66,31.21,2.52,3.85,4.55,7.97,5.93,12.37.96,3.06,5.79,1.75,4.82-1.33h0Z"/>
  <path class="cls-1" d="m152.48,99.57c-5.81-17.75-9.5-36.18-10.84-54.81-.38-5.28-.57-10.58-.59-15.88-.01-3.22-5.01-3.22-5,0,.07,19.03,2.46,38.07,7.12,56.53,1.32,5.21,2.82,10.38,4.49,15.48,1,3.04,5.83,1.74,4.82-1.33h0Z"/>
  <path class="cls-1" d="m165.29,59.25c-.95-14.84.84-29.7,5.28-43.89.96-3.08-3.86-4.39-4.82-1.33-4.56,14.57-6.43,29.98-5.46,45.22.09,1.35,1.09,2.5,2.5,2.5,1.29,0,2.59-1.15,2.5-2.5h0Z"/>
  <path class="cls-1" d="m176.23,81.79c4.35-7.28,8.94-14.43,13.82-21.37,3.99-5.67,8.34-11.21,13.74-15.62,2.93-2.4,6.27-4.38,9.84-5.66,1.27-.46,2.12-1.7,1.75-3.08-.34-1.23-1.8-2.2-3.08-1.75-14.88,5.33-24.06,19.48-32.34,32.09-2.77,4.22-5.45,8.51-8.04,12.85-1.65,2.77,2.67,5.29,4.32,2.52h0Z"/>
  <path class="cls-1" d="m203.33,78.14c2.41-1.74,4.7-3.65,7.3-5.12s5.16-2.67,7.89-3.68c5.52-2.04,11.31-3.23,17.18-3.5,3.2-.15,3.22-5.15,0-5-6.31.29-12.58,1.49-18.51,3.67-2.92,1.08-5.77,2.36-8.5,3.86s-5.28,3.57-7.88,5.44c-1.09.79-1.63,2.18-.9,3.42.63,1.08,2.32,1.69,3.42.9h0Z"/>
  <path class="cls-1" d="m170.69,139.45c7.95-14.02,19.14-28.24,36.17-30.6,1.34-.19,2.07-1.9,1.75-3.08-.4-1.44-1.73-1.93-3.08-1.75-18.24,2.52-30.64,17.86-39.16,32.9-1.59,2.8,2.73,5.33,4.32,2.52h0Z"/>
  <path class="cls-1" d="m231.05,99.56c8.83-2.25,17.85-3.46,26.96-3.61,3.21-.06,3.22-5.06,0-5-9.54.16-19.05,1.44-28.29,3.79-3.12.79-1.8,5.62,1.33,4.82h0Z"/>
  <path class="cls-1" d="m198.59,139.48c16.47-3.74,33.5-7.65,50.47-5.27,4.63.65,9.19,1.8,13.57,3.45,1.26.48,2.74-.53,3.08-1.75.39-1.4-.48-2.6-1.75-3.08-16.55-6.25-34.65-4.73-51.66-1.43-5.04.98-10.04,2.11-15.05,3.25-3.14.71-1.81,5.53,1.33,4.82h0Z"/>
  <path class="cls-1" d="m239.6,152.48c4.54.18,9.31.71,13.38,2.9,2.17,1.17,4.04,2.84,5.88,4.45,2.13,1.86,4.18,3.82,6.16,5.84,2.25,2.31,5.79-1.23,3.54-3.54-2.09-2.14-4.25-4.19-6.51-6.15s-4.36-3.83-6.92-5.12c-4.83-2.43-10.18-3.18-15.52-3.39-3.22-.13-3.21,4.87,0,5h0Z"/>
  <path class="cls-1" d="m191.88,159.63c4.13.21,8.25.41,12.38.62,3.86.19,7.75.37,11.53,1.27,6.64,1.58,12.47,5.35,17.66,9.66,3.04,2.53,5.91,5.25,8.78,7.97,2.33,2.22,5.87-1.31,3.54-3.54-5.29-5.04-10.69-10.11-16.96-13.95-3.13-1.92-6.51-3.5-10.04-4.54-3.94-1.15-8.07-1.53-12.15-1.77-4.91-.28-9.83-.5-14.74-.74-3.22-.16-3.21,4.84,0,5h0Z"/>
  <path class="cls-1" d="m246.91,200.2c1.46.55,2.8,1.16,4.33,1.99s2.97,1.72,4.36,2.72c1.17.84,2.38,1.83,3.57,2.96,1.29,1.2,2.49,2.49,3.6,3.85.86,1.04,2.65.89,3.54,0,1.03-1.03.86-2.49,0-3.54-4.77-5.8-11.07-10.15-18.08-12.8-1.26-.48-2.74.53-3.08,1.75-.39,1.4.48,2.6,1.75,3.08h0Z"/>
  <path class="cls-1" d="m185.13,181.03c12.52,6.24,29.8,9.05,36.67,22.78,1.44,2.88,5.76.35,4.32-2.52-7.41-14.8-24.97-17.86-38.47-24.58-2.87-1.43-5.41,2.88-2.52,4.32h0Z"/>
  <path class="cls-1" d="m165.9,191.17c18.22,14.93,24.97,38.74,26.5,61.39.49,7.33.53,14.69.41,22.03-.05,3.22,4.95,3.22,5,0,.42-24.91-1.32-51.41-15.62-72.74-3.56-5.31-7.8-10.16-12.75-14.21-1.04-.86-2.51-1.02-3.54,0-.88.88-1.05,2.68,0,3.54h0Z"/>
  <path class="cls-1" d="m216.67,230.97c4.72,8.27,9.73,16.97,10.37,26.69.09,1.35,1.09,2.5,2.5,2.5,1.28,0,2.59-1.15,2.5-2.5-.7-10.67-5.86-20.11-11.05-29.21-1.6-2.79-5.92-.28-4.32,2.52h0Z"/>
  <path class="cls-1" d="m155.13,227.11c1.66,11.41,3.31,22.82,4.97,34.23.19,1.34,1.89,2.07,3.08,1.75,1.44-.39,1.94-1.73,1.75-3.08-1.66-11.41-3.31-22.82-4.97-34.23-.19-1.34-1.89-2.07-3.08-1.75-1.44.39-1.94,1.73-1.75,3.08h0Z"/>
  <path class="cls-1" d="m146.68,187.31c-2.85,6.32-6.99,11.91-10.29,17.99s-5.63,11.95-7.52,18.26c-3.81,12.7-5.26,26.03-5.71,39.24-.25,7.5-.17,15,.02,22.5.08,3.21,5.08,3.22,5,0-.64-25.4-.28-52.43,11.54-75.59,3.47-6.79,8.14-12.92,11.29-19.88.56-1.23.35-2.69-.9-3.42-1.07-.63-2.86-.34-3.42.9h0Z"/>
  <path class="cls-1" d="m101.82,247.9c-6.02,6.55-9.53,15.05-9.89,23.94-.13,3.22,4.87,3.21,5,0,.3-7.54,3.32-14.85,8.42-20.41,2.17-2.37-1.35-5.91-3.54-3.54h0Z"/>
  <path class="cls-1" d="m131.01,181.71c-8.81,3.62-17.53,7.69-25.23,13.35-8.15,6-14.53,13.52-18.65,22.79-2.46,5.53-3.65,11.52-6.14,17.02-.56,1.23-.35,2.69.9,3.42,1.07.63,2.86.34,3.42-.9,2.16-4.77,3.31-9.88,5.2-14.75,1.76-4.57,4.12-9.01,7.08-12.92,5.44-7.19,13.05-12.49,20.9-16.73,4.49-2.42,9.14-4.53,13.85-6.47,1.25-.51,2.13-1.66,1.75-3.08-.32-1.18-1.82-2.26-3.08-1.75h0Z"/>
  <path class="cls-1" d="m63.48,229.58c-2.69,1.1-4.98,2.95-6.98,5.03s-3.77,4.44-4.89,7.13c-.23.56-.04,1.43.25,1.93.3.52.9,1.01,1.49,1.15.64.15,1.36.11,1.93-.25s.88-.86,1.15-1.49c-.36.87.02-.02.12-.21.13-.25.26-.49.4-.73.28-.48.58-.94.91-1.4.1-.14.2-.28.3-.41.05-.07.38-.5.12-.16s.13-.16.18-.22c.1-.12.19-.24.29-.35.41-.49.85-.97,1.29-1.44s.91-.91,1.39-1.35c.22-.2.45-.4.68-.6.11-.1.23-.19.34-.28.08-.06.15-.12.23-.18-.3.23-.37.28-.22.17.46-.34.93-.68,1.42-.98.22-.13.44-.26.67-.38.21-.11,1.14-.51.26-.15.63-.26,1.14-.54,1.49-1.15.31-.54.45-1.33.25-1.93-.38-1.16-1.78-2.28-3.08-1.75h0Z"/>
  <path class="cls-1" d="m88.32,184.42c-14.94,5.99-28.8,14.38-40.98,24.9-3.41,2.95-6.67,6.06-9.79,9.32-2.22,2.33,1.31,5.87,3.54,3.54,10.68-11.16,23.14-20.49,36.87-27.58,3.81-1.97,7.71-3.76,11.7-5.36,1.25-.5,2.13-1.67,1.75-3.08-.33-1.19-1.81-2.25-3.08-1.75h0Z"/>
  <path class="cls-1" d="m54.02,150.37c-5.53.37-11.79,1.01-16.5,4.25-2.6,1.79-4.17,4.31-6.34,6.51s1.27,5.83,3.54,3.54c.91-.92,1.69-1.96,2.51-2.95.43-.52.86-1.02,1.34-1.5.27-.27.55-.53.83-.78.15-.13.31-.25.46-.38-.57.47-.08.07.05-.03.73-.48,1.47-.93,2.26-1.3.11-.05.78-.34.22-.11.26-.11.52-.21.79-.3.54-.2,1.09-.37,1.65-.53,3-.86,6.09-1.21,9.2-1.42,1.35-.09,2.5-1.08,2.5-2.5,0-1.28-1.15-2.59-2.5-2.5h0Z"/>
  <path class="cls-1" d="m96.58,110.27c-15.04-8.72-32.69-12.74-50.02-11.28-1.35.11-2.5,1.07-2.5,2.5,0,1.26,1.15,2.61,2.5,2.5,16.5-1.39,33.17,2.29,47.5,10.6,2.79,1.62,5.31-2.7,2.52-4.32h0Z"/>
  <path class="cls-1" d="m64.71,80.74c-7.3-3.81-14.82-7.56-23.19-8.04-1.35-.08-2.5,1.2-2.5,2.5,0,1.42,1.15,2.42,2.5,2.5,7.43.42,14.2,3.98,20.67,7.36,2.85,1.49,5.38-2.83,2.52-4.32h0Z"/>
  <path class="cls-1" d="m83.49,52.76c-2.72-2.12-5.39-4.33-8.22-6.3s-5.73-3.31-9.1-3.61c-1.31-.12-2.56,1.23-2.5,2.5.07,1.45,1.1,2.38,2.5,2.5.66.06,2.49.58,3.19.91,1.27.6,2.46,1.36,3.6,2.17,2.34,1.66,4.54,3.46,6.99,5.37,1.03.8,2.54,1.08,3.54,0,.82-.9,1.1-2.68,0-3.54h0Z"/>
  <path class="cls-1" d="m117.72,63.92c-3.93-6.09-8.21-12.49-14.86-15.87-1.16-.59-2.77-.34-3.42.9-.6,1.14-.35,2.79.9,3.42.77.39,1.52.83,2.24,1.31.33.22.64.45.96.68.36.26-.06-.06.14.11.15.12.3.25.45.37,1.3,1.09,2.48,2.31,3.59,3.6.26.3.51.61.76.92.13.16.25.31.37.47.49.62-.28-.38.2.25.51.67,1,1.36,1.49,2.05.99,1.41,1.93,2.86,2.86,4.3.71,1.1,2.25,1.65,3.42.9,1.1-.71,1.66-2.25.9-3.42h0Z"/>
</svg>