<?xml version="1.0" encoding="UTF-8"?>
<svg id="Layer_3" data-name="Layer 3" xmlns="http://www.w3.org/2000/svg" viewBox="0 0 300 300">
  <defs>
    <style>
      .cls-1 {
        fill: #fff;
        stroke-width: 0px;
      }
    </style>
  </defs>
  <path class="cls-1" d="m98.47,209.14c-7.3.31-14.82.8-21.98,2.34-3.13.67-5.35,2.77-5.37,6.13-.02,3.6,2.54,5.66,5.79,6.44,7.13,1.72,14.34,2.09,21.64,1.75s14.38-.71,21.58-.94c14.88-.48,29.77-.72,44.66-.88,7.35-.08,14.7-.13,22.04-.17,6.93-.04,13.87-.13,20.79.38,3.52.26,7.03.69,10.49,1.39,1.62.33,3.22.71,4.81,1.15.57.16,1.53.24,1.97.68.15.14.28.65.27.37-.01-.22-.18.25-.05.13-.05.04-.41.38-.43.4-.3.22-.77.44-1.13.59-1.61.67-3.37,1.09-5.04,1.53-3.27.87-6.6,1.55-9.95,2.07-13.6,2.11-27.47,1.56-41.18,1.59-14.84.03-29.69.47-44.53.76s-29.8.61-44.7.95c-7.17.16-14.52-.07-21.6,1.21-3.05.55-7.63,1.26-7.81,5.18-.16,3.53,3.53,5.44,6.38,6.41,3.02,1.02,6.31,1.17,9.46,1.43,3.78.31,7.56.57,11.35.79,7.32.41,14.65.66,21.98.78,29.55.47,59.07-1.12,88.6-1.93,7.34-.2,14.69-.36,22.04-.43s14.82-.21,22.21.15c3.31.16,6.63.56,9.86,1.34,1.34.32,2.68.71,3.9,1.36.52.28,1.19.59,1.58,1.05.27.32.23.14.11.37.23-.42-.29.14-.56.26.32-.14-.56.17-.49.15-.23.07-.47.13-.71.19-.8.19-1.62.33-2.43.48-.53.1-1.06.18-1.59.26-.28.04-.57.08-.85.12-.18.03-.36.05-.54.08.69-.09-.06,0-.2.03-8.22,1.05-16.49,1.74-24.74,2.41-7.71.63-15.42,1.24-23.15,1.65-13.86.73-27.75.69-41.62,1.04-5.4.14-13.6-1.18-16.34,4.93-1.4,3.11-.03,6.9,3.29,8.04,1.5.52,3.12.36,4.67.27,1.83-.11,3.67-.11,5.5-.14,3.73-.05,7.46-.03,11.18.24,1.26.09,3.68.53,2.92,1.87-.1.17-.62.49-.75.54-.45.2-.95.3-1.43.4-.92.19-2.05.23-3.15.3-3.3.18-6.58.37-9.89.39-3.08.02-6.79-.6-9.58,1.03-2.34,1.36-3.25,4.33-2.72,6.88.6,2.87,2.95,4.14,5.59,4.8,2.86.71,5.87.86,8.8.87,5.69,0,12.06.3,17.42-1.9,1.25-.51,2.13-1.66,1.75-3.08-.32-1.18-1.82-2.26-3.08-1.75-2.73,1.12-5.64,1.44-8.56,1.58s-5.74.19-8.6.14c-1.34-.02-2.69-.08-4.03-.24s-2.95-.35-4.12-.98c-.15-.08-.19-.26-.16-.16-.19-.74.05.2-.1-.23-.04-.1-.1-.63-.06-.24-.05-.55-.08-.45.13-1.03.16-.43-.09.53.12-.22-.15.16-.13.13.07-.08-.2.12-.18.1.07-.05.98-.52,2.23-.38,3.31-.37,1.89.03,3.78.04,5.67,0,3.03-.06,6.05-.23,9.08-.43,2.35-.15,4.9-.44,6.85-1.88,2.56-1.89,3.2-5.4,1.39-8.08-1.7-2.51-4.64-2.94-7.44-3.12-3.64-.23-7.29-.26-10.94-.2-1.75.03-3.5.03-5.25.14-.84.05-2.75.53-3.38-.2-.51-.59.09-1.42.55-1.83.77-.69,1.94-.94,2.95-1.08,2.86-.41,5.86-.07,8.75-.14,3.54-.09,7.07-.15,10.61-.22,7.31-.13,14.62-.23,21.93-.47,16.99-.54,34-1.94,50.89-3.75,3.15-.34,6.31-.68,9.44-1.2,1.55-.26,3.16-.49,4.63-1.07,2.75-1.08,4.75-3.67,3.68-6.72s-4.68-4.53-7.5-5.4c-3.18-.98-6.57-1.42-9.87-1.74-7.14-.67-14.43-.41-21.6-.38-29.23.14-58.42,1.83-87.65,2.33-14.5.25-29.01.2-43.5-.47-6.92-.32-13.98-.52-20.85-1.48-1.44-.2-2.98-.5-4.32-1.1-.53-.24-1.07-.53-1.54-.87.3.21-.51-.39-.45-.38.18.03-.32,1.03-.43.8-.06-.13,3.78-1.07,4.14-1.13,1.63-.31,3.27-.5,4.92-.63,7.15-.55,14.38-.46,21.55-.62s14.82-.33,22.22-.48c14.73-.31,29.47-.59,44.2-.86,7.09-.13,14.18-.26,21.28-.24s13.71.09,20.57-.16,13.71-.83,20.46-2.07c3.34-.61,6.65-1.39,9.89-2.38,2.6-.79,5.62-1.7,7.02-4.25,1.67-3.05-.33-6.58-3.35-7.73s-6.66-1.8-9.98-2.32c-6.89-1.1-13.86-1.37-20.83-1.4-14.49-.06-29,.15-43.49.36-14.56.21-29.11.54-43.66,1.15-7.06.3-14.16,1.07-21.22.41-1.68-.16-3.36-.39-5.02-.69s-3.33-.51-4.86-1.08c-.78-.29-1.11-.67-1.03-1.47.1-.98.59-.92,1.72-1.16,6.73-1.44,13.79-1.86,20.65-2.16,3.21-.14,3.22-5.14,0-5h0Z"/>
  <path class="cls-1" d="m146.61,48.89c8.87-6.84,17.75-13.69,26.62-20.53.89-.69,1.47-1.65,1.15-2.82-.28-1-1.33-1.92-2.41-1.84-12.87,1-25.78,1.51-38.69,1.54-2.08,0-3.41,2.79-1.77,4.27,9.59,8.62,21.81,12.95,32.47,19.95,1.9,1.25,4.16-.81,3.67-2.82-2.84-11.78-9.92-22.11-12.01-34.11-.37-2.12-3.62-2.42-4.57-.6-5.78,11.1-10.88,23.73-10.88,36.43,0,1.92,2.12,3.08,3.76,2.16,3.75-2.1,7.51-4.19,11.26-6.29l-3.42-3.42c-1.71,3.9-3.49,7.77-5.35,11.6-.46.94-.92,1.88-1.39,2.81s-1.1,1.9-1.39,2.9c-.63,2.18.97,4.55,3.29,4.62,1.26.04,2.66-.34,3.9-.52l6.26-.92,2.85-.42c.3-.04.61-.09.91-.13.73-.11-.07.19-.41.05l-1.1-.64-.34-.83.34-1.26c-1.16,2.63-5.11,4.23-7.6,5.49-3.01,1.53-6.2,3.12-8.36,5.79-1.48,1.83-2.01,4.22-.11,6.01.85.8,1.93,1.05,3.06,1,1.65-.08,3.3-.23,4.94-.35l13.87-.97c.27-.02.98.06,1.22-.09.08-.05-.33-1.26-.08-1.17.03.01-.92.74-.97.77-.57.33-1.18.59-1.77.87-4.3,2.05-8.76,3.75-13.32,5.11s-9.49,2.39-14.35,3.13c-2.37.36-4.4,2.12-4.5,4.64-.09,2.25,1.45,3.91,3.5,4.57s4.21.33,6.23.27c2.64-.08,5.28-.15,7.93-.23,5.2-.15,10.4-.3,15.61-.45.47-.01.96-.06,1.43-.01.17.02.51.06.49.1.05-.13-.27-.25-.2-.27-.03,0-.52.61-.59.66-.72.5-1.63.7-2.45.96-1.25.39-2.5.78-3.75,1.16-5.01,1.52-10.06,2.95-15.13,4.28-4.43,1.16-9.53,1.79-13.37,4.46-1.87,1.3-3.92,3.12-3.31,5.65s3,3.06,5.33,3.09c10.47.17,20.94.17,31.4.34,1.24.02,2.48.04,3.72.06.31,0,2.37.08,2.32.18-.2.45-.67-1.13-.4-.91.02.02-.55.25-.58.26-1.18.45-2.38.85-3.58,1.22-4.47,1.4-9.07,2.36-13.68,3.18-9.35,1.66-18.87,2.71-27.97,5.57-1.05.33-2.1.69-3.13,1.07-1.15.42-2.34.8-3.01,1.91-1.16,1.89-.38,4.51,1.75,5.29,1.14.42,2.49.36,3.69.44,1.4.1,2.8.19,4.2.28,2.56.16,5.11.3,7.67.42,10.49.51,20.98.61,31.48.63,2.04,0,4.08.03,6.12-.04.7-.02,1.4-.04,2.1-.03.39,0,.78.01,1.17.04.18.01.37.02.56.04-.33-.04.08,0,.21.04.57.14.48.27.12-.08-.07-.07-.59-.62-.53-.69-.02.02.16.46.19.54.09.28.15.6.26.87-.06-.14.04-.49-.05-.13.03-.12.21-.66.2-.7-.02-.13.1-.04-.09.09-.14.1-.27.27-.41.38-.05.05-.71.59-.71.56-.03-.12.83-.22.36-.17-.11.01-.22.05-.32.08-1.98.47-4.05.67-6.06.95-1.09.15-2.82.37-4.26.56-1.7.22-3.39.43-5.09.64-7.43.91-14.88,1.76-22.31,2.69-5.23.65-10.46,1.35-15.67,2.18-4.34.69-9.08,1.25-12.55,4.23-1.68,1.43-2.51,3.71-1.34,5.74,1.39,2.4,4,2.16,6.41,2.19,5.22.06,10.44.12,15.67.17,10.61.12,21.22.24,31.83.35,5.22.06,10.44.12,15.67.17,1,.01,2.43.05,3.15.02-.16,0,.02.02.15.08.04.02-.22-.12-.18-.14.05-.02-.3-.57.04.12-.05-.11-.03-.26.04-.35-.04.05-.15.2-.38.38-.36.28-.77.5-1.16.71-.96.52-1.98.88-3.03,1.16-3.75,1-7.66,1.5-11.5,2.05-2.71.39-4.59.63-7.45.99s-5.91.73-8.87,1.08c-11.6,1.38-23.22,2.6-34.78,4.23-3.39.48-6.89.89-10.19,1.82-1.9.54-3.63,1.53-4.12,3.64-.47,1.99.49,4.12,2.27,5.11,1,.56,2.08.56,3.19.56,1.41,0,2.83,0,4.24,0,21.09.04,42.17.29,63.25.14,5.11-.04,10.21-.08,15.32-.14,1.53-.02,2.95-.21,4.23.38-.39-.18.51.42.22.17.22.19.2.14.37.49.26.56.4,1.3.3,1.74-.07.3-.26.49-.53.69-.64.46-1.27.7-1.91.93-2.01.73-4.07,1.33-6.17,1.77-4.91,1.05-9.92,1.74-14.91,2.25-20.83,2.12-41.71,2.81-62.62,3.77-4.98.23-10.03.35-14.95,1.22-2.19.39-4.42,1.39-5.58,3.4s-1.13,4.63.21,6.55c1.25,1.8,3.26,2.49,5.35,2.74,2.3.28,4.64.28,6.95.4,5.14.27,10.28.57,15.43.75,21.04.76,42.11-.6,63.14-.94,5.19-.08,10.39-.14,15.58-.11,2.62.01,5.24.07,7.85.23,1.31.08,2.62.19,3.92.33.18.02.72.19.83.13.26-.14-.03.06-.02-.14.02-.49.03-.11-.03-.11-.38.03-.96.49-1.33.66-1.09.5-2.21.94-3.34,1.34-2.23.79-4.51,1.4-6.82,1.89-4.5.95-9.09,1.36-13.69,1.57-9.16.42-18.35.39-27.52.67s-18.99.65-28.49.98c-8.84.3-17.68.58-26.53.71-3.21.05-3.22,5.05,0,5,19.66-.29,39.3-1.25,58.95-1.8,9.7-.27,19.49-.04,29.16-.93,5-.46,9.99-1.25,14.78-2.77,2.36-.75,4.86-1.6,7.02-2.82,2.29-1.29,3.5-4.19,2.29-6.64-1.13-2.27-3.51-2.56-5.77-2.79-2.69-.27-5.39-.4-8.09-.47-5.51-.12-11.02-.04-16.53.04-11.13.14-22.25.56-33.38.86-11.07.29-22.16.5-33.23.07-5.39-.21-10.77-.53-16.16-.81-1.8-.09-4.35.13-5.79-.53-1.11-.51-.52-1.83.63-2.28,2.13-.83,4.83-.8,7.08-.95,2.6-.17,5.2-.31,7.8-.43,5.62-.26,11.24-.41,16.87-.66,11.06-.5,22.12-1.04,33.16-1.96,5.32-.45,10.66-.87,15.96-1.5s10.7-1.33,15.84-2.75c3.48-.96,8.3-2.24,9.37-6.23s-1.71-8.26-5.83-8.91c-2.01-.32-4.05-.2-6.07-.18-2.76.03-5.52.05-8.28.08-5.47.05-10.93.08-16.4.09-11.15.02-22.31-.05-33.46-.12-5.58-.03-11.15-.06-16.73-.08-1.33,0-2.66,0-3.99,0-.67,0-1.33,0-2,0,.08,0-1,0-1,0,0-.07.33.15.33.14.08.09.06.17.12.27-.14-.23.07-.28-.03-.06-.07.14-.19.31-.25.44.02-.05.14-.07.18-.1.29-.24-.6.19-.28.11,3.13-.78,6.23-1.4,9.43-1.87,1.19-.18,2.39-.34,3.58-.51.5-.07.13-.02.03,0,.16-.02.31-.04.47-.06.32-.04.63-.08.95-.13.74-.1,1.47-.19,2.21-.29,2.97-.38,5.94-.74,8.92-1.09,6.37-.76,12.75-1.48,19.12-2.24,6-.71,11.99-1.44,17.97-2.3,4.34-.63,9.06-1.05,13.17-2.69,2.06-.83,4.59-2.01,5.58-4.14s.28-4.66-1.62-6.02-4.77-.94-7.02-.96c-2.74-.03-5.47-.06-8.21-.09-11.11-.12-22.22-.25-33.32-.37-5.55-.06-11.11-.12-16.66-.19-1.33-.01-2.65-.03-3.98-.04-.66,0-1.33-.01-1.99-.02-1.32-.01-.21-.13-.01.53.14.5-.33.62.2.33.37-.2.7-.53,1.07-.75.86-.5,1.77-.83,2.73-1.11,2.37-.69,4.86-1,7.29-1.39,2.65-.42,5.31-.8,7.98-1.17,5.35-.73,10.71-1.36,16.06-2,6.64-.79,13.28-1.57,19.91-2.44,2.68-.35,5.38-.68,8.04-1.16,2.29-.41,4.87-2.02,5.43-4.43.35-1.48-.24-3.92-1.31-5.01-1.22-1.24-3.12-1.37-4.76-1.43-4.25-.16-8.54.06-12.8.06-11.04.02-22.07-.29-33.09-.93-1.32-.08-2.64-.16-3.96-.24-.66-.04-1.32-.09-1.98-.13-.6-.04-1.66-.32-2.22-.16l-.25-.02c.27.1.47.29.61.56l.32.4c.15.58.02,1.03-.4,1.33l-.26.27c.21-.08.41-.16.62-.23.28-.1.55-.2.83-.3,1.18-.42,2.37-.8,3.57-1.16,4.84-1.43,9.79-2.38,14.76-3.21,9.82-1.65,19.82-2.87,29.19-6.38,2.42-.91,4.52-2.59,4.09-5.48-.37-2.53-2.58-3.64-4.92-3.82-2.66-.21-5.37-.12-8.03-.15s-5.4-.06-8.1-.09c-5.47-.05-10.93-.08-16.4-.15-1.32-.02-2.63-.03-3.95-.06-.19,0-1.98,0-1.98-.03-.04-.38.94.52,1,.73.17.57-.39,1,.16.58,1.68-1.29,3.3-2.14,5.35-2.72,5.21-1.47,10.5-2.67,15.71-4.15,2.68-.76,5.35-1.55,8.01-2.37,2.17-.66,4.69-1.17,6.61-2.44,2.15-1.42,3.53-3.96,2.62-6.52-.86-2.4-3.27-3.22-5.62-3.2-5.47.04-10.95.31-16.41.47-2.72.08-5.45.16-8.17.23-1.18.03-2.37.13-3.55.08-.45-.02-.5-.02-.82-.11-.88-.24-.22-.04-.2-.04-.55-.04-.08-.23-.05.04.07.74.25.46.97.35,1.36-.21,2.73-.41,4.08-.66,2.49-.46,4.95-1.01,7.39-1.66,5.02-1.34,9.92-3.09,14.67-5.18,2.18-.96,4.82-1.86,6.46-3.67,1.82-2.01,1.75-5.17-.72-6.65-1.64-.99-3.44-.66-5.24-.54l-7.44.52-7.59.53-2.28.16c-.12,0-.4-.02-.51.04-.01,0-.07,0-.08,0,.33-.37.71.35.84.57.22.3.24.64.06,1.03l.16-.24c.37-.25,1.03-1.13,1.54-1.54s1.27-.91,1.92-1.3c1.6-.96,3.29-1.76,4.94-2.62s3.23-1.75,4.69-2.87,3.27-2.61,3.77-4.41c.72-2.62-1.69-4.45-4.08-4.11-.66.09-1.32.19-1.98.29l-7.6,1.12-2.88.42c-.22.03-.48.03-.69.1-.89.29,1.27,2.23,1.91,1.44.36-.45.61-1.2.87-1.72,2.33-4.67,4.54-9.41,6.63-14.2.95-2.19-1.06-4.74-3.42-3.42-3.75,2.1-7.51,4.19-11.26,6.29l3.76,2.16c0-5.94,1.35-11.78,3.18-17.41s4.26-11.19,7.02-16.5l-4.57-.6c2.1,12,9.18,22.33,12.01,34.11l3.67-2.82c-10.27-6.74-22.23-10.87-31.46-19.16l-1.77,4.27c12.91-.03,25.82-.54,38.69-1.54l-1.26-4.66c-8.87,6.84-17.75,13.69-26.62,20.53-1.07.82-1.64,2.15-.9,3.42.61,1.05,2.34,1.73,3.42.9h0Z"/>
</svg>