<?xml version="1.0" encoding="UTF-8"?>
<svg id="Layer_5" data-name="Layer 5" xmlns="http://www.w3.org/2000/svg" viewBox="0 0 300 300">
  <defs>
    <style>
      .cls-1 {
        fill: #fff;
        stroke-width: 0px;
      }
    </style>
  </defs>
  <path class="cls-1" d="m69.84,61.07c-.85-4.73-2.63-9.31-5.18-13.39-.69-1.11-2.26-1.64-3.42-.9s-1.64,2.23-.9,3.42c.6.96,1.16,1.94,1.66,2.95.27.54.52,1.09.77,1.64.22.49-.12-.31.1.24.11.28.23.56.33.84.81,2.12,1.4,4.3,1.8,6.53.23,1.29,1.87,2.14,3.08,1.75,1.39-.45,1.99-1.69,1.75-3.08h0Z"/>
  <path class="cls-1" d="m78.67,66.59c.66-4.12,1.03-8.27,1.03-12.44,0-1.31-1.15-2.56-2.5-2.5s-2.5,1.1-2.5,2.5c0,1.93-.07,3.87-.23,5.79-.07.92-.16,1.85-.27,2.77-.03.23-.06.46-.08.69-.07.61.05-.3-.03.26s-.16,1.07-.24,1.61c-.21,1.29.33,2.75,1.75,3.08,1.2.27,2.85-.37,3.08-1.75h0Z"/>
  <path class="cls-1" d="m87.85,66.15c2.38-4.52,4.58-9.13,6.59-13.83.51-1.2.4-2.74-.9-3.42-1.07-.57-2.87-.39-3.42.9-2.01,4.7-4.21,9.31-6.59,13.83-.61,1.16-.33,2.77.9,3.42,1.15.61,2.77.34,3.42-.9h0Z"/>
  <path class="cls-1" d="m91.83,75.67c3.26-2.95,6.32-6.13,9.14-9.5.44-.52.73-1.07.73-1.77,0-.61-.27-1.35-.73-1.77-.93-.85-2.64-1.07-3.54,0-2.82,3.37-5.88,6.55-9.14,9.5-.97.88-.96,2.65,0,3.54,1.04.95,2.5.94,3.54,0h0Z"/>
  <path class="cls-1" d="m98.42,79.55c5.04-1.5,10.09-3,15.13-4.5,1.25-.37,2.17-1.77,1.75-3.08s-1.73-2.15-3.08-1.75c-5.04,1.5-10.09,3-15.13,4.5-1.25.37-2.17,1.77-1.75,3.08s1.73,2.15,3.08,1.75h0Z"/>
  <path class="cls-1" d="m94.98,88.34c1.87-.3,3.85-.52,6.09-.62s4.36-.08,6.54.06c1.31.08,2.56-1.21,2.5-2.5-.06-1.42-1.1-2.41-2.5-2.5-4.68-.29-9.34,0-13.96.74-1.29.21-2.13,1.89-1.75,3.08.45,1.4,1.69,1.97,3.08,1.75h0Z"/>
  <path class="cls-1" d="m95.19,96.79c1.35.45,2.7.93,4.01,1.49-.27-.11.54.24.63.28.33.15.65.29.97.45.6.29,1.2.58,1.8.89,2.49,1.29,4.87,2.79,7.13,4.46,1.06.78,2.84.21,3.42-.9.69-1.3.23-2.59-.9-3.42-4.77-3.52-10.1-6.22-15.73-8.07-1.24-.41-2.79.47-3.08,1.75-.31,1.38.42,2.64,1.75,3.08h0Z"/>
  <path class="cls-1" d="m86.78,100.86c2.67,3.39,5.61,6.57,8.8,9.48.97.88,2.59,1.03,3.54,0,.88-.96,1.03-2.59,0-3.54-3.19-2.91-6.13-6.08-8.8-9.48-.37-.47-1.2-.73-1.77-.73-.61,0-1.35.27-1.77.73s-.76,1.1-.73,1.77c.03.71.3,1.22.73,1.77h0Z"/>
  <path class="cls-1" d="m81.79,109.5c.25.54.49,1.08.72,1.62.12.28.13.31.04.1.07.16.13.31.19.47.1.23.19.47.28.71.44,1.1.84,2.21,1.22,3.34.76,2.24,1.4,4.53,1.93,6.84.29,1.28,1.83,2.15,3.08,1.75,1.34-.43,2.06-1.71,1.75-3.08-1.13-4.92-2.79-9.68-4.9-14.27-.55-1.19-2.36-1.58-3.42-.9-1.23.79-1.48,2.14-.9,3.42h0Z"/>
  <path class="cls-1" d="m72.18,104.51c-.67,4.39-.68,8.72-.04,13.11.19,1.3,1.9,2.13,3.08,1.75,1.42-.46,1.95-1.68,1.75-3.08-.09-.61.03.32-.03-.24-.03-.26-.06-.53-.09-.79-.05-.45-.09-.91-.12-1.36-.07-.95-.1-1.89-.09-2.84s.04-1.82.11-2.73c.03-.45.07-.91.12-1.36.02-.15.03-.3.05-.45.03-.26.04-.3.01-.12-.03.18-.02.14.02-.12.02-.15.04-.3.07-.45.2-1.29-.32-2.75-1.75-3.08-1.19-.27-2.86.36-3.08,1.75h0Z"/>
  <path class="cls-1" d="m63.25,106.22c-2.93,4.21-5.53,8.63-7.8,13.22-.58,1.17-.35,2.76.9,3.42,1.13.6,2.8.36,3.42-.9,2.26-4.6,4.87-9.02,7.8-13.22.75-1.08.23-2.82-.9-3.42-1.28-.67-2.62-.25-3.42.9h0Z"/>
  <path class="cls-1" d="m59.99,96.31c-4.15,2.1-7.95,4.94-11.16,8.31-.9.95-1.01,2.61,0,3.54s2.57,1.01,3.54,0c.76-.79,1.54-1.56,2.36-2.29.41-.36.83-.72,1.25-1.07.21-.17.43-.34.64-.51.27-.22-.35.26-.07.06.12-.09.24-.18.37-.27,1.76-1.3,3.64-2.45,5.6-3.44,1.17-.59,1.6-2.33.9-3.42-.77-1.19-2.17-1.53-3.42-.9h0Z"/>
  <path class="cls-1" d="m53.52,90.74c-5.87.69-11.58,2.21-17.14,4.17-1.27.45-2.12,1.71-1.75,3.08.34,1.23,1.8,2.2,3.08,1.75,2.67-.94,5.38-1.79,8.13-2.49,1.35-.35,2.72-.66,4.09-.93,1.23-.24,2.64-.47,3.59-.58,1.29-.15,2.57-1.04,2.5-2.5-.05-1.22-1.11-2.66-2.5-2.5h0Z"/>
  <path class="cls-1" d="m56.94,80.82c-4.82-.21-9.62.27-14.43-.21-1.31-.13-2.56,1.24-2.5,2.5.07,1.47,1.1,2.36,2.5,2.5,4.81.48,9.61,0,14.43.21,1.31.06,2.56-1.19,2.5-2.5-.06-1.4-1.1-2.44-2.5-2.5h0Z"/>
  <path class="cls-1" d="m54.91,73.32c-.31-.11-.63-.22-.93-.35.39.17-.46-.22-.53-.26-.52-.26-1.03-.54-1.53-.83-1.12-.65-2.21-1.36-3.31-2.05-2.37-1.49-4.74-2.99-7.11-4.48-1.11-.7-2.8-.27-3.42.9-.65,1.23-.29,2.68.9,3.42,2.45,1.54,4.9,3.09,7.35,4.63s4.64,2.94,7.27,3.84c1.24.43,2.79-.49,3.08-1.75.32-1.39-.42-2.62-1.75-3.08h0Z"/>
  <path class="cls-1" d="m63.82,69.78c-3.2-3.4-6.39-6.8-9.59-10.21-.9-.96-2.64-.97-3.54,0-.94,1.02-.96,2.52,0,3.54,3.2,3.4,6.39,6.8,9.59,10.21.9.96,2.64.97,3.54,0,.94-1.02.96-2.52,0-3.54h0Z"/>
  <path class="cls-1" d="m46.51,48.63l-4.49-5.4c-.39-.47-1.19-.73-1.77-.73-.61,0-1.35.27-1.77.73s-.76,1.1-.73,1.77l.09.66c.12.42.33.79.64,1.1,1.5,1.8,2.99,3.6,4.49,5.4.39.47,1.19.73,1.77.73.61,0,1.35-.27,1.77-.73s.76-1.1.73-1.77l-.09-.66c-.12-.42-.33-.79-.64-1.1h0Z"/>
  <path class="cls-1" d="m57.93,29.87c-.77-2.73-1.91-5.38-3.37-7.81-.67-1.12-2.28-1.64-3.42-.9s-1.62,2.22-.9,3.42,1.36,2.45,1.91,3.74l-.25-.6c.47,1.13.88,2.29,1.21,3.47.35,1.26,1.79,2.16,3.08,1.75s2.13-1.73,1.75-3.08h0Z"/>
  <path class="cls-1" d="m80.81,38.16c-.07-2.4-.35-4.79-.77-7.15-.11-.58-.65-1.2-1.15-1.49-.54-.31-1.33-.45-1.93-.25s-1.19.57-1.49,1.15c-.33.62-.38,1.23-.25,1.93s.22,1.32.32,1.98l-.09-.66c.2,1.49.32,3,.37,4.5.02.65.27,1.3.73,1.77.43.43,1.15.76,1.77.73,1.32-.06,2.54-1.1,2.5-2.5h0Z"/>
  <path class="cls-1" d="m102.27,34.53c1.07-2.19,2.15-4.38,3.22-6.57.3-.61.44-1.25.25-1.93-.16-.58-.61-1.21-1.15-1.49-.58-.31-1.28-.46-1.93-.25-.59.19-1.21.57-1.49,1.15-1.07,2.19-2.15,4.38-3.22,6.57-.3.61-.44,1.25-.25,1.93.16.58.61,1.21,1.15,1.49.58.31,1.28.46,1.93.25.59-.19,1.21-.57,1.49-1.15h0Z"/>
  <path class="cls-1" d="m113.2,55.18c1.77-1.52,3.41-3.19,4.9-4.99.43-.53.73-1.06.73-1.77,0-.61-.27-1.35-.73-1.77s-1.1-.76-1.77-.73c-.63.03-1.35.23-1.77.73-1.49,1.8-3.13,3.47-4.9,4.99-.46.4-.73,1.18-.73,1.77s.27,1.35.73,1.77,1.1.76,1.77.73,1.24-.28,1.77-.73h0Z"/>
  <path class="cls-1" d="m130.39,67.79c2.95-.53,5.8-1.54,8.47-2.89,1.17-.59,1.6-2.33.9-3.42-.77-1.19-2.17-1.53-3.42-.9-.6.3-1.21.59-1.82.85l.6-.25c-1.95.82-3.97,1.42-6.05,1.79-.58.11-1.2.65-1.49,1.15-.31.54-.45,1.33-.25,1.93s.57,1.19,1.15,1.49c.62.33,1.23.38,1.93.25h0Z"/>
  <path class="cls-1" d="m123.6,90.15c2.18-.09,4.36.02,6.52.31l-.66-.09c.23.03.47.07.7.1.69.11,1.3.11,1.93-.25.52-.3,1.01-.9,1.15-1.49.15-.64.11-1.36-.25-1.93-.33-.51-.87-1.05-1.49-1.15-2.62-.4-5.24-.6-7.89-.5-1.31.05-2.56,1.11-2.5,2.5.06,1.31,1.1,2.56,2.5,2.5h0Z"/>
  <path class="cls-1" d="m126.08,112.03l6.56,2.84c.64.28,1.22.45,1.93.25.58-.16,1.21-.61,1.49-1.15.31-.58.46-1.28.25-1.93-.19-.58-.57-1.24-1.15-1.49-2.19-.95-4.37-1.89-6.56-2.84-.64-.28-1.22-.45-1.93-.25-.58.16-1.21.61-1.49,1.15-.31.58-.46,1.28-.25,1.93.19.58.57,1.24,1.15,1.49h0Z"/>
  <path class="cls-1" d="m106.39,121.72c.45.28.89.58,1.31.9l-.51-.39c.98.76,1.86,1.64,2.63,2.62l-.39-.51c.47.61.89,1.25,1.26,1.92.3.54.9.99,1.49,1.15s1.4.09,1.93-.25c1.16-.75,1.57-2.19.9-3.42-1.43-2.6-3.57-4.79-6.1-6.34-.55-.33-1.31-.42-1.93-.25-.58.16-1.21.61-1.49,1.15-.64,1.22-.29,2.69.9,3.42h0Z"/>
  <path class="cls-1" d="m93.22,140.71c.91,2.02,1.81,4.04,2.72,6.07.24.54.95,1,1.49,1.15.6.16,1.4.09,1.93-.25s1-.86,1.15-1.49l.09-.66c0-.45-.12-.87-.34-1.26l-2.72-6.07c-.24-.54-.95-1-1.49-1.15-.6-.16-1.4-.09-1.93.25s-1,.86-1.15,1.49l-.09.66c0,.45.12.87.34,1.26h0Z"/>
  <path class="cls-1" d="m70.85,132.57v5.71c0,.64.28,1.31.73,1.77s1.15.76,1.77.73c1.35-.06,2.5-1.1,2.5-2.5v-5.71c0-.64-.28-1.31-.73-1.77s-1.15-.76-1.77-.73c-1.35.06-2.5,1.1-2.5,2.5h0Z"/>
  <path class="cls-1" d="m50.42,145.27c1.81-2.42,3.2-5.08,4.3-7.9.22-.57.04-1.42-.25-1.93s-.9-1.01-1.49-1.15c-.64-.15-1.36-.11-1.93.25s-.9.86-1.15,1.49c-.11.28-.23.57-.34.85l.25-.6c-.97,2.29-2.22,4.45-3.7,6.45-.36.49-.41,1.37-.25,1.93s.61,1.21,1.15,1.49c.58.31,1.28.46,1.93.25s1.08-.6,1.49-1.15h0Z"/>
  <path class="cls-1" d="m37.79,122.51c1.15-1.26,2.41-2.41,3.76-3.46l-.51.39c.29-.22.58-.44.87-.65.54-.39.97-.83,1.15-1.49.16-.6.09-1.4-.25-1.93s-.86-1-1.49-1.15-1.39-.13-1.93.25c-1.86,1.33-3.59,2.82-5.14,4.5-.45.49-.73,1.1-.73,1.77,0,.61.27,1.35.73,1.77s1.1.76,1.77.73,1.32-.24,1.77-.73h0Z"/>
  <path class="cls-1" d="m16.21,110l5.29-2.02c.62-.24,1.15-.55,1.49-1.15.31-.54.45-1.33.25-1.93s-.57-1.19-1.15-1.49-1.31-.49-1.93-.25l-5.29,2.02c-.62.24-1.15.55-1.49,1.15-.31.54-.45,1.33-.25,1.93s.57,1.19,1.15,1.49,1.31.49,1.93.25h0Z"/>
  <path class="cls-1" d="m21.6,83.57l6.47.77c.59.07,1.37-.33,1.77-.73.43-.43.76-1.15.73-1.77s-.24-1.32-.73-1.77l-.51-.39c-.39-.23-.81-.34-1.26-.34l-6.47-.77c-.59-.07-1.37.33-1.77.73-.43.43-.76,1.15-.73,1.77s.24,1.32.73,1.77l.51.39c.39.23.81.34,1.26.34h0Z"/>
  <path class="cls-1" d="m16.74,59.58c.39.15.78.31,1.17.47l-.6-.25c1.97.84,3.87,1.83,5.68,2.97,1.11.7,2.8.27,3.42-.9.65-1.23.29-2.67-.9-3.42-2.35-1.48-4.85-2.69-7.45-3.69-.57-.22-1.42-.04-1.93.25s-1.01.9-1.15,1.49c-.15.64-.11,1.36.25,1.93s.85.9,1.49,1.15h0Z"/>
  <path class="cls-1" d="m100.98,130.93c6.78,13.82,12.39,28.18,16.8,42.92,4.38,14.65,7.61,29.67,9.54,44.84,1.1,8.68,1.79,17.41,2.09,26.16.11,3.21,5.11,3.22,5,0-.53-15.74-2.36-31.43-5.46-46.87s-7.44-30.48-13.02-45.13c-3.16-8.31-6.71-16.47-10.63-24.45-.59-1.21-2.32-1.54-3.42-.9-1.24.72-1.49,2.2-.9,3.42h0Z"/>
  <path class="cls-1" d="m145.65,194.06c2.44-16.65,6.22-33.1,11.3-49.15,1.44-4.54,2.99-9.05,4.63-13.52.47-1.27-.52-2.74-1.75-3.08-1.39-.38-2.61.47-3.08,1.75-5.81,15.8-10.35,32.05-13.55,48.58-.9,4.68-1.7,9.37-2.39,14.09-.2,1.33.33,2.69,1.75,3.08,1.18.32,2.88-.4,3.08-1.75h0Z"/>
  <path class="cls-1" d="m188.68,68.79c2.73,1.13,5.55,2.07,8.33,3.06,1.77.63,3.53,1.25,5.31,1.84,1.12.37,2.3.85,3.49.91,1.63.08,2.84-1.66,2.41-3.16-4.19-14.72-8.38-29.43-12.57-44.15-.46-1.62-2.24-2.23-3.67-1.49-13.31,6.8-22.7,18.81-34.98,27.04-1.2.81-1.84,2.85-.51,3.93,3.47,2.79,7.95,3.58,11.62,5.74,2.78,1.64,5.3-2.68,2.52-4.32-1.74-1.03-3.71-1.69-5.57-2.46-.93-.39-1.85-.79-2.75-1.23-.49-.24-.98-.49-1.46-.76-.19-.11-.38-.23-.57-.35-.09-.06-.65-.48-.25-.16l-.51,3.93c12.28-8.23,21.71-20.25,34.98-27.04l-3.67-1.49c4.19,14.72,8.38,29.43,12.57,44.15l2.41-3.16c.18,0,.75.17.21,0-.21-.07-.42-.12-.63-.18-.65-.19-1.3-.41-1.94-.62-1.8-.6-3.58-1.23-5.37-1.87-2.7-.96-5.43-1.87-8.08-2.97-1.25-.52-2.75.56-3.08,1.75-.39,1.44.49,2.56,1.75,3.08h0Z"/>
  <path class="cls-1" d="m158.27,277.9c.07-.23.16-.47.24-.69.04-.12.09-.24.14-.35.03-.08.26-.64.09-.22s.09-.2.12-.27c.07-.15.13-.3.2-.46.17-.39.35-.77.53-1.15.77-1.66,1.58-3.31,2.4-4.95,1.48-2.95,3-5.88,4.53-8.81.63-1.2.31-2.72-.9-3.42-1.13-.66-2.79-.3-3.42.9-1.57,2.99-3.12,5.99-4.63,9.01s-3.14,5.95-4.12,9.09c-.4,1.29.48,2.73,1.75,3.08,1.34.37,2.67-.45,3.08-1.75h0Z"/>
  <path class="cls-1" d="m172.01,248.49c3.02-6.81,6.67-13.32,10.93-19.44s9.23-11.93,14.23-17.57c2.13-2.4-1.4-5.95-3.54-3.54-5.18,5.85-10.25,11.81-14.75,18.2s-8.12,12.87-11.2,19.82c-.55,1.23-.36,2.69.9,3.42,1.06.62,2.87.34,3.42-.9h0Z"/>
  <path class="cls-1" d="m205.09,186.7c-5.21,2.1-9.97,4.93-14.3,8.51-1.01.84-.93,2.68,0,3.54,1.08.99,2.46.89,3.54,0,.24-.2.48-.4.72-.59.07-.05.8-.62.41-.33.5-.38,1-.75,1.51-1.1,1.02-.72,2.07-1.4,3.14-2.03s2.16-1.24,3.28-1.79c.56-.28,1.12-.54,1.69-.8.28-.13.57-.25.86-.38-.46.2.4-.16.48-.2,1.21-.49,2.2-1.69,1.75-3.08-.38-1.17-1.78-2.27-3.08-1.75h0Z"/>
  <path class="cls-1" d="m210.77,176.89c-4.24-.23-8.39.63-12.28,2.29-.53.23-1,.96-1.15,1.49-.16.6-.09,1.4.25,1.93s.86,1,1.49,1.15c.7.16,1.27.03,1.93-.25-.58.25.23-.09.34-.13.19-.07.38-.14.57-.21.44-.16.89-.3,1.34-.43.84-.24,1.69-.44,2.55-.59.2-.04.4-.07.6-.1.29-.04.27-.04-.07,0,.1-.01.2-.02.3-.04.43-.05.87-.09,1.31-.11.94-.06,1.88-.05,2.82,0,1.31.07,2.56-1.2,2.5-2.5-.06-1.42-1.1-2.42-2.5-2.5h0Z"/>
  <path class="cls-1" d="m202.25,169.58c-4.93-1.1-9.86-2.2-14.79-3.3-1.27-.28-2.77.39-3.08,1.75-.29,1.27.38,2.77,1.75,3.08,4.93,1.1,9.86,2.2,14.79,3.3,1.27.28,2.77-.39,3.08-1.75.29-1.27-.38-2.77-1.75-3.08h0Z"/>
  <path class="cls-1" d="m212.44,165.37c-2.98-1.45-5.81-3.2-8.44-5.22-.48-.37-1.38-.4-1.93-.25-.58.16-1.21.61-1.49,1.15-.31.58-.46,1.28-.25,1.93s.6,1.07,1.15,1.49c2.63,2.02,5.46,3.77,8.44,5.22.61.3,1.25.44,1.93.25.58-.16,1.21-.61,1.49-1.15.59-1.12.36-2.81-.9-3.42h0Z"/>
  <path class="cls-1" d="m213.78,155.6c-3.12-4.09-5.94-8.39-8.46-12.88-.64-1.14-2.3-1.62-3.42-.9s-1.58,2.2-.9,3.42c2.51,4.49,5.34,8.79,8.46,12.88.79,1.04,2.19,1.69,3.42.9,1.02-.66,1.74-2.31.9-3.42h0Z"/>
  <path class="cls-1" d="m224.29,159.67l-2.68-9.89c-.34-1.26-1.79-2.16-3.08-1.75s-2.11,1.72-1.75,3.08l2.68,9.89c.34,1.26,1.79,2.16,3.08,1.75s2.11-1.72,1.75-3.08h0Z"/>
  <path class="cls-1" d="m231.88,151.98c.26-4.74.88-8.68,1.94-13.39.28-1.27-.39-2.77-1.75-3.08-1.27-.29-2.77.38-3.08,1.75-1.08,4.84-1.84,9.77-2.11,14.72-.07,1.31,1.2,2.56,2.5,2.5,1.42-.06,2.42-1.1,2.5-2.5h0Z"/>
  <path class="cls-1" d="m236.36,163.42c1.41-2.27,2.82-4.55,4.23-6.82.69-1.11.28-2.8-.9-3.42s-2.68-.29-3.42.9c-1.41,2.27-2.82,4.55-4.23,6.82-.69,1.11-.28,2.8.9,3.42s2.68.29,3.42-.9h0Z"/>
  <path class="cls-1" d="m245.29,164.6c5.14-1.68,10.01-4.15,14.36-7.37,1.05-.78,1.68-2.2.9-3.42-.67-1.04-2.3-1.73-3.42-.9-2.05,1.52-4.21,2.89-6.48,4.07-.54.28-1.08.55-1.63.81-.29.14-.59.27-.88.41-.08.03-.93.41-.52.23-1.19.5-2.41.95-3.65,1.35s-2.18,1.75-1.75,3.08c.4,1.24,1.74,2.18,3.08,1.75h0Z"/>
  <path class="cls-1" d="m241.18,175.12c3.27-1,6.53-1.99,9.8-2.99,1.25-.38,2.17-1.77,1.75-3.08s-1.74-2.15-3.08-1.75l-9.8,2.99c-1.25.38-2.17,1.77-1.75,3.08s1.74,2.15,3.08,1.75h0Z"/>
  <path class="cls-1" d="m247.68,182.39c.62.06,1.24.13,1.86.21-.41-.05.4.06.39.06.26.04.53.08.79.12,1.19.19,2.37.41,3.54.67,2.31.5,4.58,1.13,6.82,1.88,1.24.41,2.79-.48,3.08-1.75.31-1.38-.42-2.63-1.75-3.08-4.78-1.59-9.72-2.6-14.73-3.11-1.31-.13-2.56,1.24-2.5,2.5.07,1.47,1.1,2.36,2.5,2.5h0Z"/>
  <path class="cls-1" d="m237.67,186.14c1.46.81,2.88,1.68,4.26,2.61.68.46,1.35.93,2.01,1.42.16.12.33.25.49.37.08.06.16.12.24.19.26.2-.4-.31-.14-.11.34.27.68.54,1.02.82.53.43,1.06.73,1.77.73.61,0,1.35-.27,1.77-.73.84-.92,1.08-2.65,0-3.54-2.79-2.28-5.74-4.33-8.89-6.08-1.14-.64-2.78-.31-3.42.9s-.32,2.74.9,3.42h0Z"/>
  <path class="cls-1" d="m236,196.27c2.87,4.48,6,8.78,9.34,12.91.83,1.02,2.69.92,3.54,0,1-1.08.88-2.45,0-3.54-.39-.49-.79-.98-1.18-1.47-.19-.25-.39-.49-.58-.74.29.37-.28-.36-.33-.43-.76-1-1.51-2.01-2.24-3.03-1.47-2.04-2.88-4.12-4.23-6.23-.7-1.1-2.25-1.65-3.42-.9-1.1.71-1.65,2.24-.9,3.42h0Z"/>
  <path class="cls-1" d="m225.87,190.71c.48,1.96.88,3.94,1.2,5.94.16.96.3,1.93.44,2.89.03.22.06.44.09.66.04.29.04.3,0,0,.02.15.04.3.06.45.07.54.14,1.08.21,1.62.17,1.29,1.03,2.57,2.5,2.5,1.21-.05,2.68-1.11,2.5-2.5-.56-4.33-1.15-8.65-2.18-12.89-.31-1.27-1.82-2.15-3.08-1.75-1.32.43-2.08,1.71-1.75,3.08h0Z"/>
  <path class="cls-1" d="m215.12,187.55c-2.59,2.7-4.91,5.68-6.87,8.86-.69,1.11-.28,2.8.9,3.42s2.68.29,3.42-.9c.45-.73.92-1.45,1.41-2.15.24-.35.49-.7.75-1.05.13-.18.27-.37.41-.55.06-.08.12-.16.18-.24.27-.35-.26.33-.07.09,1.08-1.37,2.21-2.69,3.42-3.95.91-.94,1.01-2.61,0-3.54s-2.57-1.01-3.54,0h0Z"/>
  <path class="cls-1" d="m218.11,198.12c-.69,4.83-1.37,9.66-2.06,14.5-.18,1.29.31,2.75,1.75,3.08,1.18.27,2.88-.36,3.08-1.75.69-4.83,1.37-9.66,2.06-14.5.18-1.29-.31-2.75-1.75-3.08-1.18-.27-2.88.36-3.08,1.75h0Z"/>
  <path class="cls-1" d="m212.84,231.24c-.61,2.8-1.21,5.6-1.82,8.39-.28,1.27.38,2.76,1.75,3.08,1.26.29,2.78-.38,3.08-1.75.61-2.8,1.21-5.6,1.82-8.39.28-1.27-.38-2.76-1.75-3.08-1.26-.29-2.78.38-3.08,1.75h0Z"/>
  <path class="cls-1" d="m202.88,207.8c-.59,1.1-1.06,2.27-1.48,3.44-.3.83-.56,1.67-.89,2.48l.25-.6c-.06.14-.12.28-.19.41-.3.61-.44,1.25-.25,1.93.16.58.61,1.21,1.15,1.49.58.31,1.28.46,1.93.25.59-.19,1.21-.57,1.49-1.15.77-1.58,1.21-3.3,1.89-4.92l-.25.6c.2-.48.42-.95.67-1.41.31-.59.43-1.28.25-1.93-.16-.58-.61-1.21-1.15-1.49-1.16-.61-2.76-.33-3.42.9h0Z"/>
  <path class="cls-1" d="m176.39,206.17c-.9.63-1.76,1.32-2.63,1.99l.51-.39c-.66.51-1.35.95-2.06,1.37-.54.32-.98.89-1.15,1.49s-.09,1.4.25,1.93.86,1,1.49,1.15,1.33.09,1.93-.25,1.16-.7,1.71-1.11c.58-.43,1.15-.89,1.72-1.33l-.51.39c.41-.32.84-.63,1.27-.93.54-.38.97-.84,1.15-1.49.16-.6.09-1.4-.25-1.93s-.86-1-1.49-1.15-1.38-.13-1.93.25h0Z"/>
  <path class="cls-1" d="m188.68,181.77c-1.41.17-2.8.4-4.17.8s-2.67.93-3.93,1.54c-.54.26-1,.94-1.15,1.49-.16.6-.09,1.4.25,1.93s.86,1,1.49,1.15c.69.16,1.29.05,1.93-.25.34-.16.68-.32,1.03-.47l-.6.25c1.74-.73,3.56-1.22,5.43-1.48l-.66.09c.12-.02.25-.03.37-.05.69-.08,1.26-.23,1.77-.73.43-.43.76-1.15.73-1.77s-.24-1.32-.73-1.77c-.46-.42-1.12-.81-1.77-.73h0Z"/>
  <path class="cls-1" d="m171.47,162.89l-8-1.11c-.7-.1-1.29-.12-1.93.25-.52.3-1.01.9-1.15,1.49-.15.64-.11,1.36.25,1.93.33.51.87,1.06,1.49,1.15l8,1.11c.7.1,1.29.12,1.93-.25.52-.3,1.01-.9,1.15-1.49.15-.64.11-1.36-.25-1.93-.33-.51-.87-1.06-1.49-1.15h0Z"/>
  <path class="cls-1" d="m194.11,153.69c-1.77-1.15-3.54-2.31-5.31-3.46-.53-.34-1.33-.42-1.93-.25s-1.21.61-1.49,1.15c-.66,1.25-.27,2.66.9,3.42,1.77,1.15,3.54,2.31,5.31,3.46.53.34,1.33.42,1.93.25s1.21-.61,1.49-1.15c.66-1.25.27-2.66-.9-3.42h0Z"/>
  <path class="cls-1" d="m196.2,129.39c-.87-1.57-1.66-3.18-2.36-4.83l.25.6c-.38-.91-.74-1.84-1.07-2.77-.22-.62-.57-1.15-1.15-1.49-.54-.31-1.33-.45-1.93-.25-1.21.39-2.21,1.75-1.75,3.08,1,2.83,2.22,5.58,3.68,8.2.64,1.14,2.3,1.62,3.42.9s1.58-2.2.9-3.42h0Z"/>
  <path class="cls-1" d="m219.22,137.28c-.5-1.97-1.61-3.75-2.44-5.6-.24-.54-.95-1-1.49-1.15-.6-.16-1.4-.09-1.93.25s-1,.86-1.15,1.49l-.09.66c0,.45.12.87.34,1.26.54,1.22,1.2,2.38,1.72,3.6l-.25-.6c.19.45.35.92.47,1.39.15.6.62,1.18,1.15,1.49s1.33.45,1.93.25,1.19-.57,1.49-1.15.42-1.26.25-1.93h0Z"/>
  <path class="cls-1" d="m237.2,121.43c.35-2.45.83-4.87,1.53-7.25.37-1.25-.45-2.78-1.75-3.08s-2.68.4-3.08,1.75c-.7,2.37-1.18,4.8-1.53,7.25-.1.69-.12,1.3.25,1.93.3.52.9,1.01,1.49,1.15.64.15,1.36.11,1.93-.25.51-.33,1.06-.87,1.15-1.49h0Z"/>
  <path class="cls-1" d="m247.48,145.22c1.19-1.67,1.97-3.6,3.16-5.28.36-.5.41-1.36.25-1.93s-.61-1.21-1.15-1.49c-.58-.31-1.28-.46-1.93-.25l-.6.25c-.38.22-.67.52-.9.9-1.2,1.67-1.97,3.6-3.16,5.28-.36.5-.41,1.36-.25,1.93s.61,1.21,1.15,1.49c.58.31,1.28.46,1.93.25l.6-.25c.38-.22.67-.52.9-.9h0Z"/>
  <path class="cls-1" d="m272.94,146.52c1.96-1.35,4.06-2.49,6.25-3.43l-.6.25c.32-.14.65-.27.98-.4.63-.24,1.14-.55,1.49-1.15.31-.54.45-1.33.25-1.93s-.57-1.19-1.15-1.49-1.31-.49-1.93-.25c-2.75,1.07-5.39,2.4-7.82,4.07-.54.37-.97.84-1.15,1.49-.16.6-.09,1.4.25,1.93.69,1.07,2.27,1.69,3.42.9h0Z"/>
  <path class="cls-1" d="m263.68,170.07c1.02-.12,2.03-.29,3.05-.43l-.66.09c.94-.13,1.9-.22,2.85-.09l-.66-.09c.16.02.32.05.47.09.65.14,1.34.09,1.93-.25.52-.3,1.01-.9,1.15-1.49.15-.64.11-1.36-.25-1.93-.34-.53-.86-1.01-1.49-1.15-2.22-.49-4.39-.01-6.6.29l.66-.09c-.15.02-.29.04-.44.06-.34-.01-.67.06-.96.22-.31.1-.58.27-.8.52-.43.43-.76,1.15-.73,1.77s.24,1.32.73,1.77c.45.42,1.13.81,1.77.73h0Z"/>
  <path class="cls-1" d="m280.18,188.9l7.2,2c1.26.35,2.78-.43,3.08-1.75s-.4-2.7-1.75-3.08l-7.2-2c-1.26-.35-2.78.43-3.08,1.75s.4,2.7,1.75,3.08h0Z"/>
  <path class="cls-1" d="m256.93,198.56c.58.15,1.14.34,1.69.57l-.6-.25c.92.4,1.79.9,2.58,1.51l-.51-.39c.52.4,1,.85,1.45,1.33.89.96,2.65.97,3.54,0,.95-1.03.95-2.51,0-3.54-1.81-1.96-4.24-3.4-6.82-4.05-.64-.16-1.36-.08-1.93.25-.52.3-1.01.9-1.15,1.49-.15.64-.11,1.36.25,1.93s.85.99,1.49,1.15h0Z"/>
  <path class="cls-1" d="m255.77,224.08c1.28,2.02,2.57,4.04,3.85,6.06.34.54.87.98,1.49,1.15s1.4.09,1.93-.25,1-.86,1.15-1.49.11-1.35-.25-1.93c-1.28-2.02-2.57-4.04-3.85-6.06-.34-.54-.87-.98-1.49-1.15s-1.4-.09-1.93.25-1,.86-1.15,1.49-.11,1.35.25,1.93h0Z"/>
  <path class="cls-1" d="m230.59,214.96l2.76,5.28c.28.54.92.99,1.49,1.15s1.4.09,1.93-.25c1.18-.76,1.55-2.18.9-3.42-.92-1.76-1.84-3.52-2.76-5.28-.28-.54-.92-.99-1.49-1.15s-1.4-.09-1.93.25c-1.18.76-1.55,2.18-.9,3.42h0Z"/>
  <path class="cls-1" d="m63.21,199.47c2.27-9.41,4.94-18.72,8.03-27.9,1.03-3.06-3.8-4.37-4.82-1.33-3.09,9.18-5.76,18.49-8.03,27.9-.75,3.13,4.07,4.46,4.82,1.33h0Z"/>
  <path class="cls-1" d="m74.51,188.13c3.93-4.67,8.09-9.14,12.48-13.38.94-.91.98-2.63,0-3.54s-2.53-.97-3.54,0c-4.39,4.24-8.55,8.71-12.48,13.38-.84,1-1.05,2.57,0,3.54.93.85,2.64,1.07,3.54,0h0Z"/>
  <path class="cls-1" d="m68.56,205.22c8.01-4.18,15.86-8.67,23.53-13.45,2.73-1.7.22-6.02-2.52-4.32-7.67,4.78-15.52,9.26-23.53,13.45-2.85,1.49-.33,5.81,2.52,4.32h0Z"/>
  <path class="cls-1" d="m85.08,205.91c5.72-.86,11.46-1.6,17.22-2.21,1.34-.14,2.5-1.05,2.5-2.5,0-1.24-1.15-2.64-2.5-2.5-6.2.66-12.38,1.46-18.55,2.39-1.34.2-2.07,1.88-1.75,3.08.39,1.43,1.74,1.95,3.08,1.75h0Z"/>
  <path class="cls-1" d="m68.4,213.8c4.23.05,8.37,1.74,12.37,2.97,4.27,1.31,8.55,2.62,12.82,3.93,3.08.94,4.4-3.88,1.33-4.82-4.43-1.36-8.87-2.71-13.3-4.07s-8.67-2.95-13.23-3c-3.22-.04-3.22,4.96,0,5h0Z"/>
  <path class="cls-1" d="m60.73,218.81c5.04,7.82,10.08,15.64,15.11,23.46,1.74,2.7,6.07.19,4.32-2.52-5.04-7.82-10.08-15.64-15.11-23.46-1.74-2.7-6.07-.19-4.32,2.52h0Z"/>
  <path class="cls-1" d="m60.13,235.3c1.82,5.83,2.69,11.83,2.58,17.94-.02,1.35,1.17,2.5,2.5,2.5s2.48-1.14,2.5-2.5c.11-6.51-.82-13.05-2.76-19.26-.4-1.29-1.74-2.11-3.08-1.75s-2.15,1.78-1.75,3.08h0Z"/>
  <path class="cls-1" d="m53.14,217.95c-1.68,8.71-3.79,17.33-6.33,25.82-.92,3.09,3.9,4.41,4.82,1.33,2.54-8.5,4.65-17.11,6.33-25.82.26-1.32-.37-2.7-1.75-3.08-1.22-.34-2.82.41-3.08,1.75h0Z"/>
  <path class="cls-1" d="m40.37,229.81c-3.6,4.71-7.26,9.38-10.71,14.2-.76,1.07-.22,2.83.9,3.42,1.29.68,2.61.24,3.42-.9,3.45-4.82,7.11-9.49,10.71-14.2.8-1.04.2-2.84-.9-3.42-1.32-.7-2.57-.22-3.42.9h0Z"/>
  <path class="cls-1" d="m48.67,211.14c-9.18,3.68-18.01,8.12-26.4,13.37-2.72,1.7-.22,6.03,2.52,4.32,8.01-5.01,16.44-9.34,25.2-12.86,1.25-.5,2.13-1.67,1.75-3.08-.33-1.19-1.81-2.25-3.08-1.75h0Z"/>
  <path class="cls-1" d="m32.62,209.64c-6.6.39-13.2.78-19.79,1.16-1.35.08-2.5,1.09-2.5,2.5,0,1.29,1.15,2.58,2.5,2.5,6.6-.39,13.2-.78,19.79-1.16,1.35-.08,2.5-1.09,2.5-2.5,0-1.29-1.15-2.58-2.5-2.5h0Z"/>
  <path class="cls-1" d="m48.53,202.74c-9.06-1.3-17.99-3.71-26.42-7.29-1.24-.53-2.68-.37-3.42.9-.61,1.05-.35,2.89.9,3.42,8.86,3.77,18.08,6.43,27.62,7.8,1.33.19,2.69-.33,3.08-1.75.32-1.17-.4-2.88-1.75-3.08h0Z"/>
  <path class="cls-1" d="m37.32,191.68c-4.94-3.56-9.89-7.12-14.83-10.68-1.06-.77-2.83-.22-3.42.9-.68,1.29-.24,2.6.9,3.42,4.94,3.56,9.89,7.12,14.83,10.68,1.06.77,2.83.22,3.42-.9.68-1.29.24-2.6-.9-3.42h0Z"/>
  <path class="cls-1" d="m55.51,198.03c-1.81-4.1-4.46-7.77-6.91-11.5-2.58-3.94-5.17-7.87-7.75-11.81-.74-1.13-2.21-1.6-3.42-.9-1.12.66-1.64,2.29-.9,3.42,2.58,3.94,5.17,7.87,7.75,11.81,2.45,3.73,5.1,7.4,6.91,11.5.55,1.24,2.35,1.52,3.42.9,1.27-.74,1.44-2.18.9-3.42h0Z"/>
  <path class="cls-1" d="m56.82,180.99c-1.44-5.52-2.34-11.13-2.66-16.82-.08-1.35-1.09-2.5-2.5-2.5-1.29,0-2.58,1.15-2.5,2.5.35,6.12,1.29,12.22,2.84,18.15.34,1.31,1.79,2.1,3.08,1.75s2.09-1.76,1.75-3.08h0Z"/>
  <path class="cls-1" d="m79,225.2c1.59.8,3.12,1.72,4.58,2.75.87.62.99.71,1.8,1.39.68.57,1.34,1.17,1.98,1.79s1.25,1.27,1.84,1.94c.27.3.53.61.79.92.15.19.31.38.46.57.32.4-.13-.19.2.26,1.05,1.44,2.02,2.93,2.86,4.51.62,1.15,2.31,1.61,3.42.9,1.17-.76,1.56-2.19.9-3.42-3.65-6.8-9.43-12.45-16.31-15.93-1.17-.59-2.76-.35-3.42.9-.6,1.14-.35,2.79.9,3.42h0Z"/>
  <path class="cls-1" d="m101.47,248.89c5.57,9.74,9.55,20.27,11.87,31.25.66,3.15,5.49,1.81,4.82-1.33-2.4-11.38-6.6-22.35-12.37-32.44-1.6-2.79-5.92-.28-4.32,2.52h0Z"/>
  <path class="cls-1" d="m168.11,62.5c2.68,1.42,4.58,3.24,6.83,5.04,3.47,2.77,6.88,5.62,10.21,8.56,1.42,1.25,2.83,2.52,4.18,3.85.24.24.48.48.71.72-.03-.03.66.68.56.68-.14,0,.16-.72.16-.7.01-.04.23-.25.24-.23.02.05-.45.06-.48.06-.54,0-.74-.05-1.29-.21-.34-.1-.68-.23-1.02-.35-.59-.22-.12-.03-.73-.31-.95-.44-1.87-.93-2.79-1.44-1.92-1.07-3.79-2.25-5.63-3.46-3.19-2.1-6.26-4.38-9.47-6.46-1.21-.79-2.39-1.32-3.89-1.27-3.2.1-5.98,2.73-5.32,6.06.43,2.16,2.14,3.88,3.65,5.39,1.29,1.3,2.65,2.53,4.01,3.75,3.2,2.89,6.48,5.7,9.68,8.6,1.46,1.32,2.91,2.65,4.3,4.04.51.51,1.01,1.03,1.5,1.56.23.25.44.51.66.76.09.1.17.21.26.32-.45-.57-.08-.11,0,.02.09.15.21.45.34.57.2.18-.12-.23-.13-.33,0-.01.25.78.18.74l.75-.89c-.11.03-.23.03-.36,0-.1-.04-.29-.03-.41-.04-.71-.09-1.43-.27-2.12-.47-2.46-.7-4.69-1.98-6.78-3.43-4.48-3.1-8.31-7.03-12.79-10.13-2.55-1.77-5.83-2.58-8.06.13-1.29,1.56-2.33,3.53-1.66,5.58.95,2.92,3.92,5.28,6.16,7.2,3.33,2.87,6.87,5.51,10.4,8.14,1.55,1.15,3.11,2.3,4.66,3.46.3.22.6.45.89.67.13.1.95.73.46.35.66.52,1.32,1.03,1.93,1.61.85.81,3.48,3.97.58,3.75-1.2-.09-2.27-.89-3.21-1.56-1.48-1.05-2.92-2.15-4.37-3.23-2.85-2.11-5.69-4.22-8.54-6.33-1.39-1.03-2.78-2.06-4.17-3.09-1.22-.9-2.42-1.83-3.96-2.09-3.54-.59-6.4,2.48-6.41,5.89s2.24,6,4.31,8.38c4,4.6,8.69,8.6,13.82,11.89,1.3.83,2.63,1.61,3.98,2.35.62.33,1.24.65,1.87.97.18.09,1.14.6.8.71.06-.02.1-.27.17-.33.19-.13.37-.14,0-.05-.41.1-.85.32-1.33.41-1.44.26-2.98.06-4.42-.12-2.87-.35-5.7-.74-8.52.18-3.05.99-1.74,5.82,1.33,4.82,2.86-.93,5.86-.05,8.77.17,2.59.2,6.03-.03,7.89-2.12,2.35-2.64.59-6.56-2.19-7.99s-5.41-2.94-7.94-4.71-4.78-3.66-6.95-5.75-4.38-4.2-5.89-6.7c-.41-.68-1.2-2.13-.49-2.88.25-.27.61-.2.21-.24.72.07,1.46.83,2.01,1.24,2.91,2.15,5.82,4.32,8.73,6.47s5.69,4.28,8.58,6.35c2.59,1.86,5.84,3.17,8.94,1.74s4.01-5.04,2.61-8.06c-.99-2.15-2.8-3.78-4.64-5.21-6.36-4.95-13.07-9.22-18.84-14.82-.56-.55-1.11-1.11-1.62-1.7-.08-.1-.16-.19-.24-.29-.4-.47.3.43-.04-.05-.18-.25-.34-.51-.5-.77-.07-.11-.11-.24-.18-.35.34.53.15.41.08.16-.15-.58.14.63.01.08l-.04.37c.09-.26.1-.3.04-.14.11-.14.21-.39.29-.54-.05.08.46-.65.34-.51.57-.68.18-.03.03-.14.89.63,1.93,1.12,2.84,1.78,1.14.84,2.23,1.74,3.32,2.65,2.19,1.83,4.35,3.69,6.62,5.42,2.13,1.62,4.36,3.09,6.82,4.15s5.82,2.36,8.49,1.61c3.12-.88,3.51-4.59,2.08-7.05-.71-1.22-1.74-2.31-2.72-3.32-5.72-5.93-12.35-10.9-18.23-16.66-.74-.72-2.72-2.28-2.74-3.35,0,.3.14.03.46-.02-.04,0,.47-.05.57.07.02.03-.71-.4-.33-.13.05.04.12.06.17.09.23.15.48.29.72.44,3.2,2.03,6.24,4.32,9.4,6.41,3.52,2.32,7.2,4.75,11.22,6.11,2.24.76,5.27.89,7-1.01,2.38-2.63.31-5.62-1.72-7.6-6.02-5.89-12.7-11.31-19.47-16.32-.86-.64-1.73-1.32-2.68-1.82-2.84-1.51-5.37,2.81-2.52,4.32h0Z"/>
</svg>