<?xml version="1.0" encoding="UTF-8"?>
<svg id="Layer_2" data-name="Layer 2" xmlns="http://www.w3.org/2000/svg" viewBox="0 0 300 300">
  <defs>
    <style>
      .cls-1 {
        fill: #fff;
        stroke-width: 0px;
      }
    </style>
  </defs>
  <path class="cls-1" d="m163.06,227.95c3.59-17.92,7.17-35.84,10.76-53.75l3.03-15.15c.51-2.54-2.24-4.03-4.18-2.43-4.33,3.57-8.66,7.13-12.99,10.7l4.18,1.1c-2.02-4.96-3.05-10.27-4.2-15.48-.48-2.16-3.5-2.36-4.57-.6-3.18,5.24-4.2,11.46-7.37,16.7l4.57.6c-1.78-4.69-4.16-9.31-6.94-13.48-1.02-1.53-3.33-1.7-4.32,0-2.18,3.76-3.4,7.95-5.42,11.79l3.93-.51c-3.4-3.11-7.43-6.42-9.46-10.65-.53-1.11-2.07-1.49-3.12-1.02-1.17.52-1.72,1.7-1.45,2.95,3.32,15.38,6.64,30.76,9.97,46.13l2.52,11.66c.36,1.68.76,3.35,1.08,5.04.2,1.08.41,2.37.04,3.42-.35.99-1.34,1.17-2.37,1.29-1.88.22-3.78.34-5.67.51-1.71.15-3.44.38-5.16.44-1.38.04-2.38-.18-3.11-1.4-1.46-2.45-.48-5.51.1-8.07.82-3.61,1.01-7.12.45-10.78-1.06-6.88-4.56-13.13-8.66-18.65s-9.01-11.07-13.18-16.88c-3.92-5.48-7.99-10.9-11.15-16.87s-5.2-12.88-5.48-19.86,1.06-14.45,3.01-21.43c2.99-10.73,6.75-22.22,14.1-30.82,3.72-4.35,8.21-7.45,13.52-9.57,6.65-2.65,13.71-4.23,20.8-5.18s14.71-1.51,22.05-1.63,14.23.28,21.03,2.25c11.11,3.22,20.64,10.85,27.12,20.33,7.45,10.89,11.01,24.09,12.1,37.12.57,6.86.63,13.81-.66,20.6s-3.61,13.01-7.13,18.77c-6.82,11.14-17.71,19.3-23.51,31.15-3.16,6.47-4.81,13.47-5.77,20.57-.45,3.32-.68,6.66-1.07,9.99-.31,2.66-.88,5.65-2.83,7.63s-4.69,2.55-7.29,2.78c-3.35.3-6.74.21-10.11.26-7.88.1-15.75.21-23.63.31-2.94.04-5.95-.1-8.87.26-2.57.31-5.17,1.09-6.87,3.18-1.96,2.41-2.51,6-1.06,8.8s4.35,4.45,7.22,5.09c3.23.72,6.54.4,9.81.18,3.85-.26,7.7-.53,11.55-.79s7.52-.49,11.28-.86,7.51-.78,11.28-.79c1.99,0,6.34-.25,6.83,2.49.11.6.02.7-.24,1.06-.45.61.32-.3-.22.24,0,0-.61.5-.27.25-.95.68-1.62.88-2.71,1.18-2.21.61-3.92.73-6.16.96-3.52.37-7.03.53-10.57.58-6.83.1-13.66.03-20.48.51-3.63.26-7.74.69-10.51,3.33-3.36,3.21-3.25,10.24,1.11,12.53,2.17,1.14,4.65,1.37,7.05,1.58,3.78.33,7.57.22,11.35,0s7.66-.44,11.51-.3c3.06.11,6.09.14,8.81.98.76.24,1.4.49,1.9,1.15-.11-.15.14.44.15.54,0,.07.01.68,0,.7,0,.02-.29.75-.14.47-.45.87-1.7,1.9-2.72,2.43-1.38.72-3,.92-4.51,1.16-6.72,1.08-13.75,1.33-20.43-.11-3.14-.68-4.48,4.14-1.33,4.82,7.47,1.61,15.13,1.34,22.65.18,3.6-.56,6.82-1.51,9.36-4.28,2.08-2.26,2.89-5.45,1.34-8.29-1.32-2.41-4.05-3.53-6.63-3.99-3.41-.61-6.94-.76-10.4-.8-7.47-.09-14.88,1.04-22.35.21-.61-.07-2.03-.3-2.94-.68.31.13-.88-.51-.5-.26-.07-.05-.48-.59-.24-.22-.14-.26-.16-.28-.04-.07-.06-.22-.11-.43-.16-.65-.13-.56-.16-.74-.16-1.36,0-.25,0-.51.04-.76-.07.54.07-.19.08-.25.03-.09.29-.73.05-.21.09-.19.2-.36.3-.54.33-.55-.34.32.1-.14.19-.2.38-.38.58-.56-.45.37.07-.04.16-.09.18-.1.36-.21.54-.31.07-.04.71-.33.17-.1.13-.05.27-.11.4-.15.91-.31,1.83-.52,2.77-.69.08-.01.81-.11.2-.04.21-.03.42-.05.64-.07.41-.04.81-.08,1.22-.11.86-.07,1.71-.12,2.57-.19,7.76-.58,15.56-.15,23.33-.5,2.93-.13,5.87-.41,8.78-.78,2.56-.33,5.11-.77,7.43-1.96,2.56-1.3,4.39-3.81,4.07-6.77-.41-3.73-3.61-6.2-7.14-6.82-3.81-.67-7.87-.26-11.69.08s-7.54.72-11.33.98-7.87.54-11.8.81c-3.56.24-7.21.74-10.78.5-2.1-.14-5.36-1.05-5.93-3.28-.23-.88.06-2.04.58-2.75.4-.56,1.21-.96,2.09-1.2,2.35-.64,5.29-.43,7.96-.47,4.05-.05,8.1-.11,12.15-.16s7.94-.11,11.91-.16c3.61-.05,7.24.03,10.84-.22,3.23-.22,6.61-.77,9.38-2.54s4.6-4.56,5.55-7.72,1.08-6.74,1.41-10.11.82-6.93,1.53-10.34c1.45-6.97,3.95-13.45,8.04-19.3,3.83-5.5,8.56-10.3,12.85-15.43,4.59-5.48,8.45-11.3,11.14-17.95s4.11-13.79,4.44-20.94c.66-14.17-1.82-28.99-7.6-41.96-5.08-11.4-13.56-21.45-24.42-27.73-12.64-7.3-27.41-7.79-41.63-6.86-7.49.49-15,1.16-22.37,2.65-6.9,1.39-14.08,3.44-20.19,7.02-10.41,6.1-16.4,17.19-20.52,28.13-5.02,13.34-8.98,27.92-6.6,42.22,1.19,7.2,4.17,13.89,8,20.06,3.61,5.83,7.69,11.49,11.87,16.92,8.08,10.51,20.91,22.4,17.81,37.11-.74,3.5-1.85,7.11-.73,10.66,1.04,3.3,3.53,5.65,7.04,5.99,1.82.18,3.71-.16,5.52-.32,1.92-.17,3.83-.34,5.75-.51,1.79-.16,3.62-.3,5.2-1.23,1.5-.88,2.55-2.44,2.95-4.11.77-3.25-.31-6.67-.99-9.84-.87-4.05-1.75-8.09-2.62-12.14-1.71-7.93-3.43-15.86-5.14-23.8s-3.29-15.22-4.93-22.82l-4.57,1.93c2.21,4.6,6.54,8.28,10.24,11.66,1.13,1.04,3.15.98,3.93-.51,2.01-3.84,3.24-8.03,5.42-11.79h-4.32c2.53,3.79,4.86,8.14,6.44,12.29.74,1.96,3.39,2.55,4.57.6,3.18-5.24,4.2-11.46,7.37-16.7l-4.57-.6c1.15,5.21,2.18,10.53,4.2,15.48.74,1.82,2.63,2.38,4.18,1.1,4.33-3.57,8.66-7.13,12.99-10.7l-4.18-2.43c-3.59,17.92-7.17,35.84-10.76,53.75l-3.03,15.15c-.26,1.32.38,2.7,1.75,3.08,1.23.34,2.81-.42,3.08-1.75h0Z"/>
  <path class="cls-1" d="m77.16,183.03c-9.28,5.53-18.16,11.69-26.62,18.41-1.06.84-.88,2.66,0,3.54,1.05,1.05,2.47.84,3.54,0,8.12-6.45,16.7-12.32,25.61-17.62,2.76-1.64.25-5.97-2.52-4.32h0Z"/>
  <path class="cls-1" d="m64.03,131.86c-1.35.47-2.81.66-4.22.9-2.65.44-4.45.66-7.08.97-5.84.68-11.72,1.21-17.61,1.36-2.49.07-5.02.1-7.5-.22-1.34-.17-2.5,1.27-2.5,2.5,0,1.5,1.15,2.33,2.5,2.5,4.99.65,10.19.19,15.18-.19,5.8-.44,11.6-1.06,17.35-1.95,1.72-.27,3.54-.48,5.19-1.05,1.28-.44,2.12-1.71,1.75-3.08-.34-1.24-1.79-2.19-3.08-1.75h0Z"/>
  <path class="cls-1" d="m73.19,90.22c-1.88-.41-3.7-1.11-5.48-1.84-2-.81-4.58-2-6.83-3.1-4.73-2.3-9.41-4.77-13.9-7.51-.87-.53-1.74-1.08-2.58-1.66-.18-.12-.36-.25-.54-.38-.16-.11-.67-.54-.07-.04-.23-.19-.46-.37-.67-.58-2.32-2.24-5.86,1.3-3.54,3.54,1.15,1.11,2.57,1.99,3.92,2.85,2.07,1.31,4.2,2.52,6.34,3.7,5.02,2.76,10.16,5.33,15.44,7.55,2.13.89,4.31,1.79,6.57,2.29,3.14.69,4.48-4.13,1.33-4.82h0Z"/>
  <path class="cls-1" d="m104.16,53.16c-5.22-9.77-10.6-19.45-16.13-29.04-1.61-2.79-5.93-.27-4.32,2.52,5.54,9.59,10.92,19.27,16.13,29.04,1.52,2.84,5.83.32,4.32-2.52h0Z"/>
  <path class="cls-1" d="m158.1,43.38c-.14-10.54-.28-21.09-.41-31.63-.04-3.21-5.04-3.22-5,0,.14,10.54.28,21.09.41,31.63.04,3.21,5.04,3.22,5,0h0Z"/>
  <path class="cls-1" d="m205.14,57.53c2.77-4.83,5.54-9.65,8.39-14.43,1.45-2.43,2.9-4.85,4.43-7.23.55-.86,1.11-1.71,1.7-2.55.09-.13.19-.25.28-.38.39-.56-.23.26.02-.03.16-.19.31-.38.5-.55,2.36-2.19-1.18-5.72-3.54-3.54-1.27,1.18-2.21,2.88-3.14,4.32-1.52,2.35-2.96,4.75-4.4,7.16-2.9,4.87-5.73,9.78-8.55,14.7-1.6,2.8,2.72,5.32,4.32,2.52h0Z"/>
  <path class="cls-1" d="m233.6,96.24c1.92-.62,3.73-1.64,5.48-2.62,2.51-1.41,4.96-2.9,7.41-4.41,5.54-3.42,11.01-6.95,16.58-10.3,2.2-1.32,4.41-2.66,6.74-3.73,1.23-.56,1.53-2.34.9-3.42-.74-1.26-2.19-1.46-3.42-.9-4.75,2.18-9.17,5.19-13.59,7.95-5.32,3.32-10.6,6.73-16.03,9.86-1.12.64-2.24,1.27-3.39,1.86-.45.23-.91.44-1.36.66-.5.24.49-.16-.11.04-.18.06-.36.14-.55.2-3.05.99-1.74,5.82,1.33,4.82h0Z"/>
  <path class="cls-1" d="m241.63,139.47c10.8.14,21.61.28,32.41.41,3.22.04,3.22-4.96,0-5-10.8-.14-21.61-.28-32.41-.41-3.22-.04-3.22,4.96,0,5h0Z"/>
  <path class="cls-1" d="m223.73,186.64c9.35,8.44,20,15.36,31.56,20.37,1.24.54,2.68.37,3.42-.9.62-1.06.35-2.88-.9-3.42-11.17-4.84-21.51-11.43-30.55-19.59-2.38-2.15-5.93,1.37-3.54,3.54h0Z"/>
</svg>